<svg width="12" height="12" viewBox="0 0 12 12" fill="none" xmlns="http://www.w3.org/2000/svg">
<path fill-rule="evenodd" clip-rule="evenodd" d="M1.33333 0C0.979711 0 0.640573 0.140476 0.390524 0.390524C0.140476 0.640573 0 0.979711 0 1.33333V10.6667C0 11.0203 0.140476 11.3594 0.390524 11.6095C0.640573 11.8595 0.979711 12 1.33333 12H10.6667C11.0203 12 11.3594 11.8595 11.6095 11.6095C11.8595 11.3594 12 11.0203 12 10.6667V1.33333C12 0.979711 11.8595 0.640573 11.6095 0.390524C11.3594 0.140476 11.0203 0 10.6667 0H1.33333ZM9.3 4.53067C9.42509 4.40566 9.49541 4.23608 9.49547 4.05924C9.49553 3.88239 9.42534 3.71276 9.30033 3.58767C9.17533 3.46257 9.00575 3.39226 8.8289 3.3922C8.65206 3.39214 8.48243 3.46233 8.35733 3.58733L5.05733 6.88733L3.64333 5.47333C3.58144 5.41139 3.50795 5.36225 3.42706 5.32871C3.34617 5.29517 3.25947 5.2779 3.1719 5.27787C2.99506 5.2778 2.82543 5.34799 2.70033 5.473C2.57524 5.59801 2.50493 5.76758 2.50487 5.94443C2.5048 6.12128 2.57499 6.29091 2.7 6.416L4.53867 8.25467C4.60677 8.3228 4.68763 8.37685 4.77662 8.41372C4.86561 8.4506 4.961 8.46958 5.05733 8.46958C5.15367 8.46958 5.24905 8.4506 5.33805 8.41372C5.42704 8.37685 5.5079 8.3228 5.576 8.25467L9.3 4.53067Z" fill="#00AE1C"/>
</svg>
